<mxfile host="app.diagrams.net" modified="2024-05-14T21:03:52.717Z" agent="Mozilla/5.0 (Windows NT 10.0; Win64; x64; rv:125.0) Gecko/20100101 Firefox/125.0" etag="4JIGoKB9DRDcw-uCc72H" version="24.4.0" type="device">
  <diagram id="Tn9wFKeYNAi0ZEAaxfwC" name="Page-1">
    <mxGraphModel dx="2183" dy="794" grid="1" gridSize="10" guides="1" tooltips="1" connect="1" arrows="1" fold="1" page="1" pageScale="1" pageWidth="850" pageHeight="1100" math="0" shadow="0">
      <root>
        <mxCell id="0" />
        <mxCell id="1" parent="0" />
        <mxCell id="x32uHQ-NpHJsjMoz14kk-1" value="" style="rounded=0;whiteSpace=wrap;html=1;" vertex="1" parent="1">
          <mxGeometry x="350" y="80" width="890" height="700" as="geometry" />
        </mxCell>
        <mxCell id="x32uHQ-NpHJsjMoz14kk-2" value="" style="rounded=0;whiteSpace=wrap;html=1;" vertex="1" parent="1">
          <mxGeometry x="400" y="130" width="320" height="240" as="geometry" />
        </mxCell>
        <mxCell id="x32uHQ-NpHJsjMoz14kk-3" value="&lt;font style=&quot;font-size: 21px;&quot;&gt;Бизнесс логика&lt;/font&gt;" style="text;html=1;strokeColor=none;fillColor=none;align=center;verticalAlign=middle;whiteSpace=wrap;rounded=0;fontSize=14;" vertex="1" parent="1">
          <mxGeometry x="450" y="150" width="220" height="30" as="geometry" />
        </mxCell>
        <mxCell id="x32uHQ-NpHJsjMoz14kk-4" value="" style="rounded=0;whiteSpace=wrap;html=1;" vertex="1" parent="1">
          <mxGeometry x="690" y="160" width="60" height="20" as="geometry" />
        </mxCell>
        <mxCell id="x32uHQ-NpHJsjMoz14kk-5" value="" style="rounded=0;whiteSpace=wrap;html=1;" vertex="1" parent="1">
          <mxGeometry x="690" y="195" width="60" height="20" as="geometry" />
        </mxCell>
        <mxCell id="x32uHQ-NpHJsjMoz14kk-6" value="" style="rounded=0;whiteSpace=wrap;html=1;" vertex="1" parent="1">
          <mxGeometry x="430" y="630" width="210" height="120" as="geometry" />
        </mxCell>
        <mxCell id="x32uHQ-NpHJsjMoz14kk-7" value="&lt;div style=&quot;font-size: 16px;&quot;&gt;&lt;font style=&quot;font-size: 16px;&quot;&gt;Пользовательский&lt;/font&gt;&lt;/div&gt;&lt;div style=&quot;font-size: 16px;&quot;&gt;&lt;font style=&quot;font-size: 16px;&quot;&gt;&lt;font style=&quot;font-size: 16px;&quot;&gt;интерфейс (UI)&lt;/font&gt;&lt;br&gt;&lt;/font&gt;&lt;/div&gt;" style="text;html=1;strokeColor=none;fillColor=none;align=center;verticalAlign=middle;whiteSpace=wrap;rounded=0;fontSize=14;" vertex="1" parent="1">
          <mxGeometry x="445" y="675" width="150" height="30" as="geometry" />
        </mxCell>
        <mxCell id="x32uHQ-NpHJsjMoz14kk-8" value="" style="rounded=0;whiteSpace=wrap;html=1;" vertex="1" parent="1">
          <mxGeometry x="610" y="650" width="60" height="20" as="geometry" />
        </mxCell>
        <mxCell id="x32uHQ-NpHJsjMoz14kk-9" value="" style="rounded=0;whiteSpace=wrap;html=1;" vertex="1" parent="1">
          <mxGeometry x="610" y="690" width="60" height="20" as="geometry" />
        </mxCell>
        <mxCell id="x32uHQ-NpHJsjMoz14kk-10" value="" style="rounded=0;whiteSpace=wrap;html=1;" vertex="1" parent="1">
          <mxGeometry x="840" y="130" width="330" height="240" as="geometry" />
        </mxCell>
        <mxCell id="x32uHQ-NpHJsjMoz14kk-11" value="&lt;div style=&quot;font-size: 21px;&quot;&gt;&lt;font style=&quot;font-size: 21px;&quot;&gt;Доступ к данным&lt;br&gt;&lt;/font&gt;&lt;/div&gt;" style="text;html=1;strokeColor=none;fillColor=none;align=center;verticalAlign=middle;whiteSpace=wrap;rounded=0;fontSize=14;" vertex="1" parent="1">
          <mxGeometry x="870" y="150" width="300" height="25" as="geometry" />
        </mxCell>
        <mxCell id="x32uHQ-NpHJsjMoz14kk-12" value="" style="rounded=0;whiteSpace=wrap;html=1;" vertex="1" parent="1">
          <mxGeometry x="1140" y="160" width="60" height="20" as="geometry" />
        </mxCell>
        <mxCell id="x32uHQ-NpHJsjMoz14kk-13" value="" style="rounded=0;whiteSpace=wrap;html=1;" vertex="1" parent="1">
          <mxGeometry x="1140" y="195" width="60" height="20" as="geometry" />
        </mxCell>
        <mxCell id="x32uHQ-NpHJsjMoz14kk-14" value="" style="endArrow=classic;html=1;rounded=0;entryX=0.75;entryY=1;entryDx=0;entryDy=0;" edge="1" parent="1" source="x32uHQ-NpHJsjMoz14kk-10" target="x32uHQ-NpHJsjMoz14kk-2">
          <mxGeometry width="50" height="50" relative="1" as="geometry">
            <mxPoint x="810" y="990" as="sourcePoint" />
            <mxPoint x="860" y="940" as="targetPoint" />
            <Array as="points">
              <mxPoint x="1010" y="540" />
              <mxPoint x="640" y="540" />
            </Array>
          </mxGeometry>
        </mxCell>
        <mxCell id="x32uHQ-NpHJsjMoz14kk-15" value="" style="endArrow=classic;html=1;rounded=0;exitX=0.25;exitY=0;exitDx=0;exitDy=0;entryX=0.25;entryY=1;entryDx=0;entryDy=0;" edge="1" parent="1" source="x32uHQ-NpHJsjMoz14kk-6" target="x32uHQ-NpHJsjMoz14kk-2">
          <mxGeometry width="50" height="50" relative="1" as="geometry">
            <mxPoint x="810" y="990" as="sourcePoint" />
            <mxPoint x="860" y="940" as="targetPoint" />
          </mxGeometry>
        </mxCell>
        <mxCell id="x32uHQ-NpHJsjMoz14kk-20" value="&lt;div align=&quot;left&quot;&gt;LibraryApp.Services&lt;/div&gt;" style="text;html=1;strokeColor=none;fillColor=none;align=left;verticalAlign=middle;whiteSpace=wrap;rounded=0;fontSize=14;" vertex="1" parent="1">
          <mxGeometry x="410" y="185" width="220" height="30" as="geometry" />
        </mxCell>
        <mxCell id="x32uHQ-NpHJsjMoz14kk-21" value="LibraryApp.Interfaces.ServiceInterfaces" style="text;html=1;strokeColor=none;fillColor=none;align=left;verticalAlign=middle;whiteSpace=wrap;rounded=0;fontSize=14;" vertex="1" parent="1">
          <mxGeometry x="410" y="215" width="220" height="30" as="geometry" />
        </mxCell>
        <mxCell id="x32uHQ-NpHJsjMoz14kk-23" value="LibraryApp.Dto" style="text;html=1;strokeColor=none;fillColor=none;align=left;verticalAlign=middle;whiteSpace=wrap;rounded=0;fontSize=14;" vertex="1" parent="1">
          <mxGeometry x="410" y="245" width="220" height="30" as="geometry" />
        </mxCell>
        <mxCell id="x32uHQ-NpHJsjMoz14kk-24" value="LibraryApp.Models" style="text;html=1;strokeColor=none;fillColor=none;align=left;verticalAlign=middle;whiteSpace=wrap;rounded=0;fontSize=14;" vertex="1" parent="1">
          <mxGeometry x="410" y="275" width="220" height="30" as="geometry" />
        </mxCell>
        <mxCell id="x32uHQ-NpHJsjMoz14kk-25" value="LibraryApp.Helper" style="text;html=1;strokeColor=none;fillColor=none;align=left;verticalAlign=middle;whiteSpace=wrap;rounded=0;fontSize=14;" vertex="1" parent="1">
          <mxGeometry x="410" y="305" width="220" height="30" as="geometry" />
        </mxCell>
        <mxCell id="x32uHQ-NpHJsjMoz14kk-26" value="LibraryApp.Data" style="text;html=1;strokeColor=none;fillColor=none;align=left;verticalAlign=middle;whiteSpace=wrap;rounded=0;fontSize=14;" vertex="1" parent="1">
          <mxGeometry x="850" y="180" width="220" height="30" as="geometry" />
        </mxCell>
        <mxCell id="x32uHQ-NpHJsjMoz14kk-28" value="LibraryApp.Repository" style="text;html=1;strokeColor=none;fillColor=none;align=left;verticalAlign=middle;whiteSpace=wrap;rounded=0;fontSize=14;" vertex="1" parent="1">
          <mxGeometry x="850" y="210" width="220" height="30" as="geometry" />
        </mxCell>
        <mxCell id="x32uHQ-NpHJsjMoz14kk-29" value="LibraryApp.Interfaces.RepositoryInterfaces" style="text;html=1;strokeColor=none;fillColor=none;align=left;verticalAlign=middle;whiteSpace=wrap;rounded=0;fontSize=14;" vertex="1" parent="1">
          <mxGeometry x="850" y="240" width="220" height="30" as="geometry" />
        </mxCell>
      </root>
    </mxGraphModel>
  </diagram>
</mxfile>
